Renner-100-Hairline.ufo
<glyph name="numbersign" format="1">
  <advance width="571"/>
  <unicode hex="0023"/>
  <outline>
    <contour>
      <point x="75" y="454" type="line"/>
      <point x="75" y="465" type="line"/>
      <point x="536" y="465" type="line"/>
      <point x="536" y="454" type="line"/>
      <point x="420" y="454" type="line" smooth="yes"/>
      <point x="416" y="454" type="line" smooth="yes"/>
      <point x="208" y="454" type="line" smooth="yes"/>
      <point x="205" y="454" type="line" smooth="yes"/>
    </contour>
    <contour>
      <point x="35" y="240" type="line"/>
      <point x="35" y="251" type="line"/>
      <point x="155" y="251" type="line" smooth="yes"/>
      <point x="160" y="251" type="line" smooth="yes"/>
      <point x="363" y="251" type="line" smooth="yes"/>
      <point x="369" y="251" type="line" smooth="yes"/>
      <point x="496" y="251" type="line"/>
      <point x="496" y="240" type="line"/>
    </contour>
    <contour>
      <point x="470" y="700" type="line"/>
      <point x="481" y="700" type="line"/>
      <point x="311" y="0" type="line"/>
      <point x="300" y="0" type="line"/>
      <point x="359" y="244" type="line" smooth="yes"/>
      <point x="360" y="246" type="line" smooth="yes"/>
      <point x="411" y="458" type="line" smooth="yes"/>
      <point x="412" y="462" type="line" smooth="yes"/>
    </contour>
    <contour>
      <point x="260" y="700" type="line"/>
      <point x="271" y="700" type="line"/>
      <point x="213" y="462" type="line" smooth="yes"/>
      <point x="212" y="458" type="line" smooth="yes"/>
      <point x="160" y="244" type="line" smooth="yes"/>
      <point x="160" y="243" type="line" smooth="yes"/>
      <point x="101" y="0" type="line"/>
      <point x="90" y="0" type="line"/>
    </contour>
  </outline>
</glyph>
<glyph name="four" format="1">
  <advance width="553"/>
  <unicode hex="0034"/>
  <outline>
    <contour>
      <point x="25" y="140" type="line"/>
      <point x="35" y="150" type="line"/>
      <point x="402" y="150" type="line" smooth="yes"/>
      <point x="405" y="150" type="line" smooth="yes"/>
      <point x="518" y="150" type="line"/>
      <point x="518" y="140" type="line"/>
    </contour>
    <contour>
      <point x="37" y="140" type="line"/>
      <point x="25" y="140" type="line"/>
      <point x="408" y="700" type="line"/>
      <point x="409" y="700" type="line"/>
      <point x="409" y="0" type="line"/>
      <point x="398" y="0" type="line"/>
      <point x="398" y="142" type="line" smooth="yes"/>
      <point x="398" y="147" type="line" smooth="yes"/>
      <point x="398" y="666" type="line"/>
    </contour>
  </outline>
</glyph>
<glyph name="less" format="1">
  <advance width="640"/>
  <unicode hex="003C"/>
  <outline>
    <contour>
      <point x="82" y="257" type="line"/>
      <point x="575" y="55" type="line"/>
      <point x="575" y="45" type="line"/>
      <point x="65" y="254" type="line"/>
      <point x="65" y="260" type="line"/>
      <point x="575" y="470" type="line"/>
      <point x="575" y="460" type="line"/>
    </contour>
  </outline>
</glyph>
<glyph name="N" format="1">
  <advance width="665"/>
  <unicode hex="004E"/>
  <outline>
    <contour>
      <point x="61" y="678" type="line"/>
      <point x="50" y="715" type="line"/>
      <point x="584" y="17" type="line"/>
      <point x="595" y="-15" type="line"/>
    </contour>
    <contour>
      <point x="584" y="700" type="line"/>
      <point x="595" y="700" type="line"/>
      <point x="595" y="-15" type="line"/>
      <point x="584" y="17" type="line"/>
    </contour>
    <contour>
      <point x="50" y="715" type="line"/>
      <point x="61" y="678" type="line"/>
      <point x="61" y="0" type="line"/>
      <point x="50" y="0" type="line"/>
    </contour>
  </outline>
</glyph>
<glyph name="W" format="1">
  <advance width="950"/>
  <unicode hex="0057"/>
  <outline>
    <contour>
      <point x="260" y="10" type="line"/>
      <point x="255" y="-15" type="line"/>
      <point x="20" y="700" type="line"/>
      <point x="31" y="700" type="line"/>
    </contour>
    <contour>
      <point x="695" y="-15" type="line"/>
      <point x="690" y="10" type="line"/>
      <point x="919" y="700" type="line"/>
      <point x="930" y="700" type="line"/>
    </contour>
    <contour>
      <point x="255" y="-15" type="line"/>
      <point x="253" y="20" type="line"/>
      <point x="475" y="715" type="line"/>
      <point x="697" y="20" type="line"/>
      <point x="695" y="-15" type="line"/>
      <point x="475" y="677" type="line"/>
    </contour>
  </outline>
</glyph>
<glyph name="bracketleft" format="1">
  <advance width="260"/>
  <unicode hex="005B"/>
  <outline>
    <contour>
      <point x="111" y="769" type="line"/>
      <point x="111" y="-209" type="line"/>
      <point x="240" y="-209" type="line"/>
      <point x="240" y="-220" type="line"/>
      <point x="100" y="-220" type="line"/>
      <point x="100" y="780" type="line"/>
      <point x="240" y="780" type="line"/>
      <point x="240" y="769" type="line"/>
    </contour>
  </outline>
</glyph>
<glyph name="currency" format="1">
  <advance width="560"/>
  <unicode hex="00A4"/>
  <outline>
    <contour>
      <point x="57" y="523" type="line"/>
      <point x="67" y="533" type="line"/>
      <point x="130" y="469" type="line"/>
      <point x="121" y="460" type="line"/>
    </contour>
    <contour>
      <point x="67" y="67" type="line"/>
      <point x="57" y="77" type="line"/>
      <point x="121" y="140" type="line"/>
      <point x="130" y="131" type="line"/>
    </contour>
    <contour>
      <point x="449" y="460" type="line"/>
      <point x="439" y="469" type="line"/>
      <point x="503" y="533" type="line"/>
      <point x="512" y="523" type="line"/>
    </contour>
    <contour>
      <point x="439" y="131" type="line"/>
      <point x="449" y="140" type="line"/>
      <point x="512" y="77" type="line"/>
      <point x="503" y="67" type="line"/>
    </contour>
    <contour>
      <point x="52" y="300" type="curve" smooth="yes"/>
      <point x="52" y="439"/>
      <point x="155" y="540"/>
      <point x="280" y="540" type="curve" smooth="yes"/>
      <point x="405" y="540"/>
      <point x="508" y="439"/>
      <point x="508" y="300" type="curve" smooth="yes"/>
      <point x="508" y="161"/>
      <point x="405" y="60"/>
      <point x="280" y="60" type="curve" smooth="yes"/>
      <point x="155" y="60"/>
      <point x="52" y="161"/>
    </contour>
    <contour>
      <point x="62" y="300" type="curve" smooth="yes"/>
      <point x="62" y="169"/>
      <point x="160" y="70"/>
      <point x="280" y="70" type="curve" smooth="yes"/>
      <point x="400" y="70"/>
      <point x="498" y="169"/>
      <point x="498" y="300" type="curve" smooth="yes"/>
      <point x="498" y="431"/>
      <point x="400" y="530"/>
      <point x="280" y="530" type="curve" smooth="yes"/>
      <point x="160" y="530"/>
      <point x="62" y="431"/>
    </contour>
  </outline>
</glyph>
<glyph name="Aacute" format="1">
  <advance width="600"/>
  <unicode hex="00C1"/>
  <outline>
    <contour>
      <point x="127" y="272" type="line"/>
      <point x="127" y="282" type="line"/>
      <point x="472" y="282" type="line"/>
      <point x="472" y="272" type="line"/>
    </contour>
    <contour>
      <point x="300" y="688" type="line"/>
      <point x="136" y="277" type="line"/>
      <point x="135" y="273" type="line"/>
      <point x="27" y="0" type="line"/>
      <point x="15" y="0" type="line"/>
      <point x="300" y="715" type="line"/>
      <point x="585" y="0" type="line"/>
      <point x="573" y="0" type="line"/>
      <point x="466" y="273" type="line"/>
      <point x="465" y="276" type="line"/>
    </contour>
    <contour>
      <point x="436" y="932" type="line"/>
      <point x="262" y="775" type="line"/>
      <point x="258" y="780" type="line"/>
      <point x="428" y="940" type="line"/>
    </contour>
  </outline>
</glyph>
<glyph name="Iacute" format="1">
  <advance width="180"/>
  <unicode hex="00CD"/>
  <outline>
    <contour>
      <point x="85" y="700" type="line"/>
      <point x="95" y="700" type="line"/>
      <point x="95" y="0" type="line"/>
      <point x="85" y="0" type="line"/>
    </contour>
    <contour>
      <point x="246" y="925" type="line"/>
      <point x="72" y="768" type="line"/>
      <point x="68" y="773" type="line"/>
      <point x="238" y="933" type="line"/>
    </contour>
  </outline>
</glyph>
<glyph name="ae" format="1">
  <advance width="825"/>
  <unicode hex="00E6"/>
  <outline>
    <contour>
      <point x="50" y="132" type="curve" smooth="yes"/>
      <point x="50" y="63"/>
      <point x="95" y="0"/>
      <point x="194" y="0" type="curve" smooth="yes"/>
      <point x="282" y="0"/>
      <point x="355" y="81"/>
      <point x="355" y="167" type="curve"/>
      <point x="363" y="166" type="line"/>
      <point x="363" y="77"/>
      <point x="293" y="-10"/>
      <point x="194" y="-10" type="curve" smooth="yes"/>
      <point x="92" y="-10"/>
      <point x="40" y="54"/>
      <point x="40" y="132" type="curve" smooth="yes"/>
      <point x="40" y="226"/>
      <point x="119" y="281"/>
      <point x="225" y="281" type="curve" smooth="yes"/>
      <point x="303" y="281"/>
      <point x="344" y="248"/>
      <point x="358" y="235" type="curve"/>
      <point x="358" y="225" type="line"/>
      <point x="340" y="243"/>
      <point x="293" y="271"/>
      <point x="225" y="271" type="curve" smooth="yes"/>
      <point x="123" y="271"/>
      <point x="50" y="218"/>
    </contour>
    <contour>
      <point x="84" y="395" type="curve"/>
      <point x="77" y="403" type="line"/>
      <point x="109" y="432"/>
      <point x="155" y="470"/>
      <point x="238" y="470" type="curve" smooth="yes"/>
      <point x="323" y="470"/>
      <point x="362" y="404"/>
      <point x="362" y="330" type="curve" smooth="yes"/>
      <point x="362" y="159" type="line"/>
      <point x="355" y="159" type="line"/>
      <point x="355" y="320" type="line" smooth="yes"/>
      <point x="355" y="393"/>
      <point x="325" y="460"/>
      <point x="235" y="460" type="curve" smooth="yes"/>
      <point x="159" y="460"/>
      <point x="114" y="423"/>
    </contour>
    <contour>
      <point x="362" y="228" type="line"/>
      <point x="362" y="238" type="line"/>
      <point x="779" y="238" type="line"/>
      <point x="785" y="228" type="line"/>
    </contour>
    <contour>
      <point x="776" y="250" type="line" smooth="yes"/>
      <point x="776" y="384"/>
      <point x="669" y="460"/>
      <point x="579" y="460" type="curve" smooth="yes"/>
      <point x="449" y="460"/>
      <point x="365" y="357"/>
      <point x="365" y="235" type="curve"/>
      <point x="365" y="235" type="line"/>
      <point x="365" y="99"/>
      <point x="453" y="0"/>
      <point x="563" y="0" type="curve" smooth="yes"/>
      <point x="680" y="0"/>
      <point x="731" y="52"/>
      <point x="771" y="113" type="curve"/>
      <point x="779" y="107" type="line"/>
      <point x="733" y="37"/>
      <point x="682" y="-10"/>
      <point x="563" y="-10" type="curve" smooth="yes"/>
      <point x="448" y="-10"/>
      <point x="355" y="91"/>
      <point x="355" y="230" type="curve" smooth="yes"/>
      <point x="355" y="247"/>
      <point x="358" y="263"/>
      <point x="361" y="279" type="curve" smooth="yes"/>
      <point x="380" y="392"/>
      <point x="458" y="470"/>
      <point x="583" y="470" type="curve" smooth="yes"/>
      <point x="663" y="470"/>
      <point x="787" y="398"/>
      <point x="787" y="253" type="curve" smooth="yes"/>
      <point x="787" y="245"/>
      <point x="786" y="236"/>
      <point x="785" y="228" type="curve"/>
      <point x="776" y="230" type="line"/>
    </contour>
  </outline>
</glyph>
<glyph name="ebreve" format="1">
  <advance width="522"/>
  <unicode hex="0115"/>
  <outline>
    <contour>
      <point x="52" y="228" type="line"/>
      <point x="52" y="238" type="line"/>
      <point x="471" y="238" type="line"/>
      <point x="475" y="228" type="line"/>
    </contour>
    <contour>
      <point x="466" y="253" type="line" smooth="yes"/>
      <point x="466" y="372"/>
      <point x="370" y="460"/>
      <point x="265" y="460" type="curve" smooth="yes"/>
      <point x="157" y="460"/>
      <point x="55" y="375"/>
      <point x="55" y="232" type="curve"/>
      <point x="55" y="232" type="line"/>
      <point x="55" y="100"/>
      <point x="141" y="0"/>
      <point x="260" y="0" type="curve" smooth="yes"/>
      <point x="378" y="0"/>
      <point x="431" y="64"/>
      <point x="461" y="113" type="curve"/>
      <point x="469" y="107" type="line"/>
      <point x="439" y="59"/>
      <point x="385" y="-10"/>
      <point x="260" y="-10" type="curve" smooth="yes"/>
      <point x="135" y="-10"/>
      <point x="45" y="93"/>
      <point x="45" y="232" type="curve" smooth="yes"/>
      <point x="45" y="259"/>
      <point x="48" y="284"/>
      <point x="55" y="308" type="curve" smooth="yes"/>
      <point x="82" y="403"/>
      <point x="162" y="470"/>
      <point x="265" y="470" type="curve" smooth="yes"/>
      <point x="375" y="470"/>
      <point x="477" y="379"/>
      <point x="477" y="254" type="curve" smooth="yes"/>
      <point x="477" y="246"/>
      <point x="476" y="236"/>
      <point x="475" y="228" type="curve"/>
      <point x="466" y="230" type="line"/>
    </contour>
    <contour>
      <point x="107" y="690" type="curve"/>
      <point x="117" y="690" type="line"/>
      <point x="117" y="624"/>
      <point x="173" y="560"/>
      <point x="265" y="560" type="curve" smooth="yes"/>
      <point x="357" y="560"/>
      <point x="413" y="624"/>
      <point x="413" y="690" type="curve"/>
      <point x="423" y="690" type="line"/>
      <point x="423" y="621"/>
      <point x="370" y="550"/>
      <point x="265" y="550" type="curve" smooth="yes"/>
      <point x="160" y="550"/>
      <point x="107" y="621"/>
    </contour>
  </outline>
</glyph>
<glyph name="eogonek" format="1">
  <advance width="522"/>
  <unicode hex="0119"/>
  <outline>
    <contour>
      <point x="52" y="228" type="line"/>
      <point x="52" y="238" type="line"/>
      <point x="471" y="238" type="line"/>
      <point x="475" y="228" type="line"/>
    </contour>
    <contour>
      <point x="466" y="253" type="line" smooth="yes"/>
      <point x="466" y="372"/>
      <point x="370" y="460"/>
      <point x="265" y="460" type="curve" smooth="yes"/>
      <point x="157" y="460"/>
      <point x="55" y="375"/>
      <point x="55" y="232" type="curve"/>
      <point x="55" y="232" type="line"/>
      <point x="55" y="100"/>
      <point x="141" y="0"/>
      <point x="260" y="0" type="curve" smooth="yes"/>
      <point x="378" y="0"/>
      <point x="431" y="64"/>
      <point x="461" y="113" type="curve"/>
      <point x="469" y="107" type="line"/>
      <point x="439" y="59"/>
      <point x="385" y="-10"/>
      <point x="260" y="-10" type="curve" smooth="yes"/>
      <point x="135" y="-10"/>
      <point x="45" y="93"/>
      <point x="45" y="232" type="curve" smooth="yes"/>
      <point x="45" y="259"/>
      <point x="48" y="284"/>
      <point x="55" y="308" type="curve" smooth="yes"/>
      <point x="82" y="403"/>
      <point x="162" y="470"/>
      <point x="265" y="470" type="curve" smooth="yes"/>
      <point x="375" y="470"/>
      <point x="477" y="379"/>
      <point x="477" y="254" type="curve" smooth="yes"/>
      <point x="477" y="246"/>
      <point x="476" y="236"/>
      <point x="475" y="228" type="curve"/>
      <point x="466" y="230" type="line"/>
    </contour>
    <contour>
      <point x="298" y="-182" type="curve"/>
      <point x="304" y="-189" type="line"/>
      <point x="289" y="-209"/>
      <point x="249" y="-229"/>
      <point x="206" y="-229" type="curve" smooth="yes"/>
      <point x="142" y="-229"/>
      <point x="104" y="-198"/>
      <point x="104" y="-149" type="curve"/>
      <point x="114" y="-149" type="line"/>
      <point x="114" y="-195"/>
      <point x="156" y="-219"/>
      <point x="206" y="-219" type="curve" smooth="yes"/>
      <point x="246" y="-219"/>
      <point x="283" y="-200"/>
    </contour>
    <contour>
      <point x="114" y="-149" type="curve"/>
      <point x="104" y="-149" type="line"/>
      <point x="104" y="-80"/>
      <point x="186" y="-36"/>
      <point x="256" y="0" type="curve"/>
      <point x="264" y="-10" type="line"/>
      <point x="196" y="-42"/>
      <point x="114" y="-92"/>
    </contour>
  </outline>
</glyph>
<glyph name="Ecaron" format="1">
  <advance width="510"/>
  <unicode hex="011A"/>
  <outline>
    <contour>
      <point x="92" y="0" type="line"/>
      <point x="92" y="10" type="line"/>
      <point x="430" y="10" type="line"/>
      <point x="430" y="0" type="line"/>
    </contour>
    <contour>
      <point x="92" y="690" type="line"/>
      <point x="92" y="700" type="line"/>
      <point x="430" y="700" type="line"/>
      <point x="430" y="690" type="line"/>
    </contour>
    <contour>
      <point x="92" y="384" type="line"/>
      <point x="92" y="394" type="line"/>
      <point x="410" y="394" type="line"/>
      <point x="410" y="384" type="line"/>
    </contour>
    <contour>
      <point x="90" y="700" type="line"/>
      <point x="101" y="700" type="line"/>
      <point x="101" y="0" type="line"/>
      <point x="90" y="0" type="line"/>
    </contour>
    <contour>
      <point x="260" y="780" type="line"/>
      <point x="412" y="916" type="line"/>
      <point x="420" y="908" type="line"/>
      <point x="260" y="768" type="line"/>
      <point x="100" y="908" type="line"/>
      <point x="108" y="916" type="line"/>
    </contour>
  </outline>
</glyph>
<glyph name="gbreve" format="1">
  <advance width="541"/>
  <unicode hex="011F"/>
  <outline>
    <contour>
      <point x="456" y="230" type="curve"/>
      <point x="451" y="230" type="line"/>
      <point x="451" y="356"/>
      <point x="358" y="460"/>
      <point x="268" y="460" type="curve" smooth="yes"/>
      <point x="138" y="460"/>
      <point x="55" y="366"/>
      <point x="55" y="230" type="curve"/>
      <point x="45" y="230" type="line"/>
      <point x="45" y="379"/>
      <point x="138" y="470"/>
      <point x="263" y="470" type="curve" smooth="yes"/>
      <point x="358" y="470"/>
      <point x="456" y="379"/>
    </contour>
    <contour>
      <point x="451" y="230" type="curve"/>
      <point x="456" y="230" type="line"/>
      <point x="456" y="81"/>
      <point x="358" y="-10"/>
      <point x="263" y="-10" type="curve" smooth="yes"/>
      <point x="138" y="-10"/>
      <point x="45" y="81"/>
      <point x="45" y="230" type="curve"/>
      <point x="55" y="230" type="line"/>
      <point x="55" y="94"/>
      <point x="138" y="0"/>
      <point x="268" y="0" type="curve" smooth="yes"/>
      <point x="358" y="0"/>
      <point x="451" y="104"/>
    </contour>
    <contour>
      <point x="60" y="-30" type="curve"/>
      <point x="70" y="-30" type="line"/>
      <point x="70" y="-146"/>
      <point x="145" y="-220"/>
      <point x="252" y="-220" type="curve" smooth="yes"/>
      <point x="359" y="-220"/>
      <point x="451" y="-145"/>
      <point x="451" y="10" type="curve" smooth="yes"/>
      <point x="451" y="460" type="line"/>
      <point x="461" y="460" type="line"/>
      <point x="461" y="10" type="line" smooth="yes"/>
      <point x="461" y="-149"/>
      <point x="367" y="-230"/>
      <point x="252" y="-230" type="curve" smooth="yes"/>
      <point x="137" y="-230"/>
      <point x="60" y="-149"/>
    </contour>
    <contour>
      <point x="100" y="690" type="curve"/>
      <point x="110" y="690" type="line"/>
      <point x="110" y="624"/>
      <point x="166" y="560"/>
      <point x="258" y="560" type="curve" smooth="yes"/>
      <point x="350" y="560"/>
      <point x="406" y="624"/>
      <point x="406" y="690" type="curve"/>
      <point x="416" y="690" type="line"/>
      <point x="416" y="621"/>
      <point x="363" y="550"/>
      <point x="258" y="550" type="curve" smooth="yes"/>
      <point x="153" y="550"/>
      <point x="100" y="621"/>
    </contour>
  </outline>
</glyph>
<glyph name="Imacron" format="1">
  <advance width="180"/>
  <unicode hex="012A"/>
  <outline>
    <contour>
      <point x="85" y="700" type="line"/>
      <point x="95" y="700" type="line"/>
      <point x="95" y="0" type="line"/>
      <point x="85" y="0" type="line"/>
    </contour>
    <contour>
      <point x="-52" y="835" type="line"/>
      <point x="-52" y="845" type="line"/>
      <point x="298" y="845" type="line"/>
      <point x="298" y="835" type="line"/>
    </contour>
  </outline>
</glyph>
<glyph name="ibreve" format="1">
  <advance width="190"/>
  <unicode hex="012D"/>
  <outline>
    <contour>
      <point x="90" y="460" type="line"/>
      <point x="100" y="460" type="line"/>
      <point x="100" y="0" type="line"/>
      <point x="90" y="0" type="line"/>
    </contour>
    <contour>
      <point x="-63" y="670" type="curve"/>
      <point x="-53" y="670" type="line"/>
      <point x="-53" y="604"/>
      <point x="3" y="540"/>
      <point x="95" y="540" type="curve" smooth="yes"/>
      <point x="187" y="540"/>
      <point x="243" y="604"/>
      <point x="243" y="670" type="curve"/>
      <point x="253" y="670" type="line"/>
      <point x="253" y="601"/>
      <point x="200" y="530"/>
      <point x="95" y="530" type="curve" smooth="yes"/>
      <point x="-10" y="530"/>
      <point x="-63" y="601"/>
    </contour>
  </outline>
</glyph>
<glyph name="Idotaccent" format="1">
  <advance width="180"/>
  <unicode hex="0130"/>
  <outline>
    <contour>
      <point x="85" y="700" type="line"/>
      <point x="95" y="700" type="line"/>
      <point x="95" y="0" type="line"/>
      <point x="85" y="0" type="line"/>
    </contour>
    <contour>
      <point x="79" y="786" type="curve" smooth="yes"/>
      <point x="79" y="793"/>
      <point x="84" y="797"/>
      <point x="90" y="797" type="curve" smooth="yes"/>
      <point x="96" y="797"/>
      <point x="101" y="793"/>
      <point x="101" y="786" type="curve" smooth="yes"/>
      <point x="101" y="779"/>
      <point x="96" y="775"/>
      <point x="90" y="775" type="curve" smooth="yes"/>
      <point x="84" y="775"/>
      <point x="79" y="779"/>
    </contour>
  </outline>
</glyph>
<glyph name="jcircumflex" format="1">
  <advance width="180"/>
  <unicode hex="0135"/>
  <outline>
    <contour>
      <point x="-96" y="-165" type="line"/>
      <point x="-80" y="-185"/>
      <point x="-55" y="-210"/>
      <point x="-18" y="-210" type="curve" smooth="yes"/>
      <point x="62" y="-210"/>
      <point x="80" y="-138"/>
      <point x="80" y="-82" type="curve" smooth="yes"/>
      <point x="80" y="460" type="line"/>
      <point x="90" y="460" type="line"/>
      <point x="90" y="-82" type="line" smooth="yes"/>
      <point x="90" y="-151"/>
      <point x="66" y="-220"/>
      <point x="-18" y="-220" type="curve" smooth="yes"/>
      <point x="-61" y="-220"/>
      <point x="-88" y="-192"/>
      <point x="-103" y="-172" type="curve"/>
    </contour>
    <contour>
      <point x="120" y="698" type="line"/>
      <point x="-33" y="563" type="line"/>
      <point x="-40" y="570" type="line"/>
      <point x="120" y="710" type="line"/>
      <point x="280" y="570" type="line"/>
      <point x="273" y="563" type="line"/>
    </contour>
  </outline>
</glyph>
<glyph name="uni0213" format="1">
  <advance width="290"/>
  <unicode hex="0213"/>
  <outline>
    <contour>
      <point x="95" y="460" type="line"/>
      <point x="95" y="0" type="line"/>
      <point x="85" y="0" type="line"/>
      <point x="85" y="460" type="line"/>
    </contour>
    <contour>
      <point x="269" y="440" type="line"/>
      <point x="252" y="452"/>
      <point x="232" y="460"/>
      <point x="212" y="460" type="curve" smooth="yes"/>
      <point x="132" y="460"/>
      <point x="95" y="376"/>
      <point x="95" y="280" type="curve"/>
      <point x="90" y="280" type="line"/>
      <point x="90" y="389"/>
      <point x="127" y="470"/>
      <point x="212" y="470" type="curve" smooth="yes"/>
      <point x="235" y="470"/>
      <point x="258" y="460"/>
      <point x="275" y="448" type="curve"/>
    </contour>
    <contour>
      <point x="22" y="550" type="curve"/>
      <point x="32" y="550" type="line"/>
      <point x="32" y="616"/>
      <point x="88" y="680"/>
      <point x="180" y="680" type="curve" smooth="yes"/>
      <point x="272" y="680"/>
      <point x="328" y="616"/>
      <point x="328" y="550" type="curve"/>
      <point x="338" y="550" type="line"/>
      <point x="338" y="619"/>
      <point x="285" y="690"/>
      <point x="180" y="690" type="curve" smooth="yes"/>
      <point x="75" y="690"/>
      <point x="22" y="619"/>
    </contour>
  </outline>
</glyph>
<glyph name="caron" format="1">
  <advance width="480"/>
  <unicode hex="02C7"/>
  <outline>
    <contour>
      <point x="240" y="582" type="line"/>
      <point x="392" y="718" type="line"/>
      <point x="400" y="710" type="line"/>
      <point x="240" y="570" type="line"/>
      <point x="80" y="710" type="line"/>
      <point x="88" y="718" type="line"/>
    </contour>
  </outline>
</glyph>
<glyph name="ring" format="1">
  <advance width="278"/>
  <unicode hex="02DA"/>
  <outline>
    <contour>
      <point x="37" y="785" type="curve" smooth="yes"/>
      <point x="37" y="845"/>
      <point x="87" y="885"/>
      <point x="139" y="885" type="curve" smooth="yes"/>
      <point x="191" y="885"/>
      <point x="241" y="845"/>
      <point x="241" y="785" type="curve" smooth="yes"/>
      <point x="241" y="725"/>
      <point x="191" y="685"/>
      <point x="139" y="685" type="curve" smooth="yes"/>
      <point x="87" y="685"/>
      <point x="37" y="725"/>
    </contour>
    <contour>
      <point x="47" y="785" type="curve" smooth="yes"/>
      <point x="47" y="732"/>
      <point x="91" y="695"/>
      <point x="139" y="695" type="curve" smooth="yes"/>
      <point x="187" y="695"/>
      <point x="231" y="732"/>
      <point x="231" y="785" type="curve" smooth="yes"/>
      <point x="231" y="838"/>
      <point x="187" y="875"/>
      <point x="139" y="875" type="curve" smooth="yes"/>
      <point x="91" y="875"/>
      <point x="47" y="838"/>
    </contour>
  </outline>
</glyph>
<glyph name="quoteright" format="1">
  <advance width="245"/>
  <unicode hex="2019"/>
  <outline>
    <contour>
      <point x="173" y="700" type="line"/>
      <point x="185" y="700" type="line"/>
      <point x="90" y="470" type="line"/>
      <point x="80" y="470" type="line"/>
    </contour>
  </outline>
</glyph>
<glyph name="quotesinglbase" format="1">
  <advance width="245"/>
  <unicode hex="201A"/>
  <outline>
    <contour>
      <point x="153" y="80" type="line"/>
      <point x="165" y="80" type="line"/>
      <point x="70" y="-150" type="line"/>
      <point x="60" y="-150" type="line"/>
    </contour>
  </outline>
</glyph>
<glyph name="uniFF16" format="1">
  <advance width="550"/>
  <unicode hex="FF16"/>
  <outline>
    <contour>
      <point x="67" y="220" type="curve" smooth="yes"/>
      <point x="67" y="94"/>
      <point x="150" y="0"/>
      <point x="275" y="0" type="curve" smooth="yes"/>
      <point x="400" y="0"/>
      <point x="483" y="94"/>
      <point x="483" y="220" type="curve" smooth="yes"/>
      <point x="483" y="336"/>
      <point x="391" y="427"/>
      <point x="286" y="427" type="curve" smooth="yes"/>
      <point x="146" y="427"/>
      <point x="67" y="326"/>
    </contour>
    <contour>
      <point x="337" y="700" type="line"/>
      <point x="349" y="700" type="line"/>
      <point x="107" y="355" type="line"/>
      <point x="107" y="355" type="line"/>
      <point x="149" y="407"/>
      <point x="211" y="437"/>
      <point x="286" y="437" type="curve" smooth="yes"/>
      <point x="400" y="437"/>
      <point x="493" y="339"/>
      <point x="493" y="220" type="curve" smooth="yes"/>
      <point x="493" y="86"/>
      <point x="410" y="-10"/>
      <point x="275" y="-10" type="curve" smooth="yes"/>
      <point x="140" y="-10"/>
      <point x="57" y="86"/>
      <point x="57" y="220" type="curve" smooth="yes"/>
      <point x="57" y="277"/>
      <point x="86" y="342"/>
      <point x="113" y="379" type="curve" smooth="yes"/>
    </contour>
  </outline>
</glyph>
<glyph name="adieresis.alt" format="1">
  <advance width="541"/>
  <outline>
    <contour>
      <point x="451" y="460" type="line"/>
      <point x="461" y="460" type="line"/>
      <point x="461" y="0" type="line"/>
      <point x="451" y="0" type="line"/>
    </contour>
    <contour>
      <point x="45" y="230" type="curve" smooth="yes"/>
      <point x="45" y="377"/>
      <point x="138" y="470"/>
      <point x="258" y="470" type="curve" smooth="yes"/>
      <point x="381" y="470"/>
      <point x="456" y="349"/>
      <point x="456" y="230" type="curve" smooth="yes"/>
      <point x="456" y="111"/>
      <point x="381" y="-10"/>
      <point x="258" y="-10" type="curve" smooth="yes"/>
      <point x="138" y="-10"/>
      <point x="45" y="83"/>
    </contour>
    <contour>
      <point x="55" y="230" type="curve" smooth="yes"/>
      <point x="55" y="89"/>
      <point x="145" y="0"/>
      <point x="261" y="0" type="curve" smooth="yes"/>
      <point x="370" y="0"/>
      <point x="451" y="114"/>
      <point x="451" y="230" type="curve" smooth="yes"/>
      <point x="451" y="346"/>
      <point x="370" y="460"/>
      <point x="261" y="460" type="curve" smooth="yes"/>
      <point x="145" y="460"/>
      <point x="55" y="371"/>
    </contour>
    <contour>
      <point x="357" y="591" type="curve" smooth="yes"/>
      <point x="357" y="598"/>
      <point x="362" y="602"/>
      <point x="368" y="602" type="curve" smooth="yes"/>
      <point x="374" y="602"/>
      <point x="379" y="598"/>
      <point x="379" y="591" type="curve" smooth="yes"/>
      <point x="379" y="584"/>
      <point x="374" y="580"/>
      <point x="368" y="580" type="curve" smooth="yes"/>
      <point x="362" y="580"/>
      <point x="357" y="584"/>
    </contour>
    <contour>
      <point x="157" y="591" type="curve" smooth="yes"/>
      <point x="157" y="598"/>
      <point x="162" y="602"/>
      <point x="168" y="602" type="curve" smooth="yes"/>
      <point x="174" y="602"/>
      <point x="179" y="598"/>
      <point x="179" y="591" type="curve" smooth="yes"/>
      <point x="179" y="584"/>
      <point x="174" y="580"/>
      <point x="168" y="580" type="curve" smooth="yes"/>
      <point x="162" y="580"/>
      <point x="157" y="584"/>
    </contour>
  </outline>
</glyph>
